<?xml version="1.0" standalone="no"?>
<!DOCTYPE svg PUBLIC "-//W3C//DTD SVG 20010904//EN"
 "http://www.w3.org/TR/2001/REC-SVG-20010904/DTD/svg10.dtd">
<svg version="1.0" xmlns="http://www.w3.org/2000/svg"
 width="765.000000pt" height="769.000000pt" viewBox="0 0 765.000000 769.000000"
 preserveAspectRatio="xMidYMid meet">

<g transform="translate(0.000000,769.000000) scale(0.100000,-0.100000)"
fill="#000000" stroke="none">
<path d="M3570 7663 c-398 -37 -672 -92 -975 -196 -605 -207 -1153 -560 -1570
-1013 -550 -597 -884 -1302 -1001 -2114 -25 -178 -31 -721 -9 -910 54 -475
176 -892 381 -1302 194 -390 432 -716 751 -1029 618 -606 1394 -975 2268
-1075 204 -23 634 -23 830 0 462 56 860 172 1260 366 392 191 728 431 1040
744 605 608 983 1388 1090 2251 24 190 21 739 -5 939 -131 1020 -669 1949
-1486 2568 -585 443 -1277 706 -2019 768 -110 9 -472 11 -555 3z m-152 -1990
l-3 -128 -1017 -3 -1018 -2 0 -204 c0 -203 0 -204 -22 -210 -30 -8 -202 -8
-222 0 -14 5 -16 45 -16 340 l0 334 1150 0 1151 0 -3 -127z m46 -759 c3 -9 6
-62 6 -119 0 -74 -4 -106 -13 -114 -10 -8 -303 -12 -1043 -13 l-1029 -3 -5
-1015 -5 -1015 -125 0 -125 0 -3 1135 c-1 624 0 1141 3 1148 3 9 246 12 1169
12 1052 0 1164 -2 1170 -16z m3231 -169 c84 -40 128 -112 126 -209 -1 -125
-97 -218 -226 -219 -86 0 -151 39 -196 117 -108 189 97 405 296 311z m-1985
-160 c120 -25 211 -74 294 -158 41 -41 86 -99 104 -134 18 -34 37 -65 41 -67
5 -3 24 18 43 47 82 122 227 239 350 283 56 20 191 44 248 44 69 0 188 -28
260 -61 166 -77 277 -214 336 -413 49 -167 54 -261 52 -901 l-3 -590 -170 0
-170 0 -6 635 c-5 599 -7 639 -26 706 -31 108 -62 163 -128 229 -66 66 -121
91 -226 102 -200 21 -419 -151 -472 -369 -6 -26 -13 -297 -16 -673 l-6 -630
-165 0 -165 0 -6 645 c-3 432 -9 660 -17 692 -18 76 -67 173 -111 220 -83 91
-214 133 -339 108 -88 -17 -146 -47 -217 -112 -66 -60 -111 -126 -146 -213
l-24 -60 -5 -640 -5 -640 -160 -2 c-88 -2 -165 0 -172 5 -8 5 -12 254 -14 962
l-3 955 135 3 c97 2 139 -1 151 -10 13 -11 17 -39 21 -148 6 -158 4 -140 20
-140 7 0 20 15 30 33 46 82 165 187 272 236 78 37 96 42 180 56 99 17 149 17
235 0z m-2027 -80 c104 -26 135 -37 222 -82 211 -110 385 -309 460 -528 43
-125 61 -288 46 -405 -10 -71 -17 -105 -39 -192 -17 -67 -94 -209 -152 -282
-63 -79 -197 -206 -217 -206 -7 0 -13 -3 -13 -7 0 -8 -116 -70 -180 -96 -104
-43 -236 -67 -366 -67 -109 0 -237 19 -276 40 -10 6 -24 10 -32 10 -26 0 -140
53 -211 98 -99 63 -155 112 -228 200 -61 73 -157 238 -170 292 -42 172 -47
203 -47 307 0 284 124 544 346 728 78 64 199 134 267 155 23 7 49 15 57 18 75
28 158 40 288 41 122 1 158 -3 245 -24z m-1395 -2141 c13 -4 22 -14 22 -25 0
-14 -7 -19 -29 -19 -35 0 -61 -31 -61 -72 0 -24 4 -28 30 -28 17 0 30 -4 30
-10 0 -5 1 -13 2 -17 1 -5 -11 -10 -28 -13 l-29 -5 -5 -125 -5 -125 -25 0 -25
0 -3 124 c-2 113 -4 123 -22 128 -26 7 -26 29 0 43 11 6 22 26 26 48 8 44 19
59 59 84 34 20 32 20 63 12z m2286 -10 c21 -20 12 -34 -23 -34 -36 0 -63 -30
-59 -66 2 -22 10 -30 36 -36 17 -5 32 -15 32 -23 0 -8 -13 -15 -32 -17 l-33
-3 -5 -125 -5 -125 -25 0 -25 0 -5 122 c-4 105 -8 124 -24 136 -18 13 -18 14
2 33 11 10 23 35 27 54 14 74 98 125 139 84z m-966 -212 c2 -185 0 -213 -13
-218 -9 -4 -24 1 -34 11 -18 15 -20 15 -29 -2 -8 -14 -23 -18 -72 -18 -59 0
-64 2 -91 35 -34 40 -44 83 -35 147 8 60 37 98 91 118 43 17 46 17 84 -2 47
-24 48 -23 51 71 1 68 5 78 28 74 15 -3 17 -27 20 -216z m2219 206 c6 -8 9
-102 9 -218 -1 -205 -1 -205 -24 -208 -13 -2 -25 3 -28 13 -6 15 -8 15 -24 0
-28 -25 -91 -30 -133 -10 -58 27 -89 113 -67 189 23 82 104 130 173 101 20 -8
39 -15 42 -15 3 0 5 29 5 64 0 35 3 71 6 80 7 19 28 21 41 4z m-3232 -48 c0
-18 -6 -26 -23 -28 -24 -4 -38 18 -28 44 3 9 15 14 28 12 17 -2 23 -10 23 -28z
m3388 11 c5 -21 -9 -41 -29 -41 -18 0 -37 28 -30 45 8 22 53 19 59 -4z m864 3
c8 -20 -21 -49 -41 -41 -9 4 -16 18 -16 32 0 20 5 25 25 25 14 0 28 -7 32 -16z
m-705 -61 c2 -23 9 -29 33 -31 53 -6 57 -42 5 -42 -37 0 -42 -17 -38 -125 l3
-80 38 -19 c30 -14 36 -21 26 -32 -24 -29 -103 -10 -114 27 -4 13 -7 63 -6
111 1 83 -1 91 -24 112 l-25 23 21 19 c12 10 25 29 30 42 13 32 47 29 51 -5z
m510 0 c2 -22 9 -29 30 -31 32 -4 58 -29 37 -36 -8 -3 -25 -6 -39 -8 -24 -3
-25 -5 -28 -97 -2 -77 0 -97 14 -112 10 -11 24 -18 33 -17 10 2 16 -4 16 -17
0 -17 -6 -20 -43 -19 -23 0 -47 5 -53 11 -19 19 -29 87 -23 149 6 65 -5 104
-31 104 -23 0 -18 31 6 37 12 4 22 17 26 34 4 22 11 29 29 29 17 0 23 -6 26
-27z m-3792 -41 c40 -20 67 -62 72 -112 l3 -35 -97 -3 c-112 -3 -128 -13 -104
-60 21 -40 63 -56 126 -47 46 6 50 5 50 -13 0 -17 -9 -22 -45 -28 -121 -18
-195 37 -195 144 0 74 29 128 83 153 51 23 62 23 107 1z m328 3 c57 -23 72
-62 72 -191 l0 -105 -27 3 -28 3 -5 112 c-4 97 -8 114 -25 127 -30 23 -59 19
-88 -10 -24 -24 -27 -33 -29 -128 -3 -100 -3 -101 -28 -101 l-25 0 -3 135 c-2
152 3 172 41 147 23 -15 27 -15 63 4 46 23 35 22 82 4z m647 1 c50 -21 37 -42
-22 -37 -86 6 -93 -53 -10 -88 55 -24 70 -43 70 -92 0 -60 -27 -83 -100 -84
-70 0 -95 8 -87 30 5 13 15 15 49 9 56 -8 87 8 83 44 -2 20 -16 33 -58 57 -88
49 -92 116 -10 157 42 22 42 22 85 4z m447 -12 c47 -24 68 -65 68 -134 0 -106
-46 -155 -147 -155 -52 0 -66 4 -88 25 -39 36 -55 73 -55 125 0 124 113 195
222 139z m862 -14 c19 -18 21 -34 24 -145 l4 -125 -25 0 c-25 0 -25 0 -29 109
-3 118 -17 151 -62 151 -55 -1 -76 -51 -76 -177 0 -82 0 -83 -25 -83 l-25 0 0
104 c0 89 -3 107 -21 130 -25 31 -47 33 -82 6 -25 -20 -26 -26 -29 -128 l-3
-107 -27 -3 -28 -3 0 145 c0 148 7 174 37 143 13 -13 20 -13 49 -1 47 20 87
17 117 -6 31 -25 29 -25 71 4 30 20 42 23 72 16 21 -5 46 -18 58 -30z m303 14
c33 -21 51 -54 55 -99 l3 -40 -97 -3 c-86 -2 -99 -5 -108 -23 -9 -17 -6 -25
25 -56 35 -35 37 -36 95 -30 55 6 60 5 60 -13 0 -15 -10 -20 -44 -25 -51 -8
-113 1 -137 18 -32 24 -59 81 -59 125 0 127 114 207 207 146z m993 3 c38 -19
49 -53 51 -172 l2 -110 -54 -3 c-137 -8 -140 -8 -160 17 -27 33 -24 83 6 119
22 26 64 44 130 55 21 3 23 31 3 55 -13 15 -90 16 -104 2 -8 -8 -15 -6 -24 5
-16 19 -6 30 40 44 37 10 70 7 110 -12z m684 0 c60 -34 79 -66 80 -134 1 -96
-43 -150 -132 -159 -119 -13 -199 114 -143 225 24 45 37 57 87 75 53 20 63 19
108 -7z m339 9 c58 -24 71 -56 72 -181 l0 -110 -25 0 c-25 0 -25 1 -30 108 -5
101 -7 109 -30 127 -33 26 -62 25 -88 -3 -18 -19 -22 -36 -24 -127 l-3 -105
-27 -3 -27 -3 -3 138 c-3 152 5 182 40 150 18 -16 21 -16 63 3 53 24 43 23 82
6z m-5081 -15 c11 -19 12 -19 39 1 14 11 35 18 45 16 33 -6 26 -32 -13 -53
-52 -28 -63 -55 -63 -157 0 -87 0 -88 -25 -88 l-25 0 0 143 c0 79 3 147 7 150
11 12 22 8 35 -12z m216 -134 l3 -148 -28 3 -28 3 -3 134 c-3 137 4 165 37
159 14 -3 16 -25 19 -151z m3380 0 l3 -147 -26 0 -25 0 0 143 c0 79 3 147 7
151 4 4 14 5 23 4 13 -3 15 -27 18 -151z m860 0 l3 -147 -26 0 -25 0 0 143 c0
79 3 147 7 151 4 4 14 5 23 4 13 -3 15 -27 18 -151z"/>
<path d="M6546 4723 c-44 -11 -98 -58 -118 -102 -50 -111 15 -241 130 -261 85
-14 168 22 201 88 27 56 32 96 16 149 -29 96 -129 151 -229 126z m112 -79 c31
-21 30 -73 -2 -103 l-25 -23 21 -22 c11 -11 26 -33 34 -47 12 -25 12 -27 -7
-32 -16 -4 -26 5 -50 43 -27 44 -61 66 -81 54 -4 -3 -8 -23 -8 -45 0 -42 -24
-64 -41 -38 -10 16 -12 212 -2 222 13 14 138 7 161 -9z"/>
<path d="M6540 4595 c0 -35 0 -35 44 -35 36 0 46 4 51 20 10 31 -12 50 -56 50
-38 0 -39 -1 -39 -35z"/>
<path d="M2416 2151 c-49 -51 -35 -159 24 -191 49 -26 117 28 118 95 2 108
-79 162 -142 96z"/>
<path d="M4645 2156 c-50 -50 -43 -156 13 -189 28 -17 37 -17 63 -7 44 19 59
47 59 111 0 47 -4 60 -26 83 -34 33 -77 34 -109 2z"/>
<path d="M1752 2157 c-41 -43 -22 -67 53 -67 44 0 75 11 75 25 0 7 -9 24 -21
39 -27 34 -77 36 -107 3z"/>
<path d="M3160 2162 c-53 -43 -55 -144 -4 -189 86 -77 190 66 121 168 -28 42
-80 51 -117 21z"/>
<path d="M4321 2154 c-38 -48 -26 -60 58 -62 39 -2 71 13 71 32 0 23 -45 56
-77 56 -22 0 -38 -8 -52 -26z"/>
<path d="M5373 2062 c-33 -10 -63 -39 -63 -60 0 -25 31 -52 59 -52 48 0 90 77
59 108 -13 13 -21 13 -55 4z"/>
<path d="M6001 2154 c-69 -88 -5 -233 86 -195 64 26 84 126 37 188 -21 27 -32
33 -64 33 -30 0 -43 -6 -59 -26z"/>
</g>
</svg>
